<svg xmlns="http://www.w3.org/2000/svg" width="300" height="200" viewBox="0 0 300 200">
  <defs>
    <linearGradient id="bg-blue-dragon" x1="0%" y1="0%" x2="100%" y2="100%">
      <stop offset="0%" stop-color="#030F33"/>
      <stop offset="100%" stop-color="#12256B"/>
    </linearGradient>
    <radialGradient id="glow-blue-dragon" cx="50%" cy="38%" r="65%">
      <stop offset="0%" stop-color="#FFFFFF" stop-opacity="0.22"/>
      <stop offset="100%" stop-color="#FFFFFF" stop-opacity="0"/>
    </radialGradient>
  </defs>
  <rect width="300" height="200" fill="url(#bg-blue-dragon)"/>
  <rect width="300" height="200" fill="url(#glow-blue-dragon)"/>
  
      <path d="M60 140 C90 110 100 150 130 120 C150 100 140 140 170 110 C190 90 185 130 220 95" stroke="#6FA8FF" stroke-width="10" fill="none" stroke-linecap="round"/>
      <polygon points="120,110 128,95 136,110" fill="#6FA8FF"/>
      <polygon points="150,95 158,80 166,95" fill="#6FA8FF"/>
      <polygon points="180,100 188,85 196,100" fill="#6FA8FF"/>
      <path d="M215 90 q14 -6 10 10 q-10 4 -10 -10z" fill="#FF6A00"/>
      <circle cx="222" cy="92" r="3" fill="#fff"/>
  <rect x="4" y="4" width="292" height="192" rx="10" fill="none" stroke="#F2C14E" stroke-width="3" stroke-opacity="0.9"/>
  <circle cx="14" cy="14" r="3" fill="#F2C14E"/>
  <circle cx="286" cy="14" r="3" fill="#F2C14E"/>
  <circle cx="14" cy="186" r="3" fill="#F2C14E"/>
  <circle cx="286" cy="186" r="3" fill="#F2C14E"/>
</svg>
