<svg xmlns="http://www.w3.org/2000/svg" width="300" height="200" viewBox="0 0 300 200">
  <defs>
    <linearGradient id="bg-cash-frenzy" x1="0%" y1="0%" x2="100%" y2="100%">
      <stop offset="0%" stop-color="#1B2E00"/>
      <stop offset="100%" stop-color="#6B9C00"/>
    </linearGradient>
    <radialGradient id="glow-cash-frenzy" cx="50%" cy="38%" r="65%">
      <stop offset="0%" stop-color="#FFFFFF" stop-opacity="0.22"/>
      <stop offset="100%" stop-color="#FFFFFF" stop-opacity="0"/>
    </radialGradient>
  </defs>
  <rect width="300" height="200" fill="url(#bg-cash-frenzy)"/>
  <rect width="300" height="200" fill="url(#glow-cash-frenzy)"/>
  
      <rect x="70" y="60" width="42" height="24" rx="3" fill="#3FA34D" stroke="#1B5E20" stroke-width="2" transform="rotate(-15 91 72)"/>
      <rect x="170" y="42" width="42" height="24" rx="3" fill="#3FA34D" stroke="#1B5E20" stroke-width="2" transform="rotate(12 191 54)"/>
      <rect x="118" y="122" width="42" height="24" rx="3" fill="#3FA34D" stroke="#1B5E20" stroke-width="2" transform="rotate(-8 139 134)"/>
      <circle cx="210" cy="132" r="14" fill="#F5D061" stroke="#B8860B" stroke-width="2"/>
      <circle cx="90" cy="155" r="14" fill="#F5D061" stroke="#B8860B" stroke-width="2"/>
  <rect x="4" y="4" width="292" height="192" rx="10" fill="none" stroke="#F2C14E" stroke-width="3" stroke-opacity="0.9"/>
  <circle cx="14" cy="14" r="3" fill="#F2C14E"/>
  <circle cx="286" cy="14" r="3" fill="#F2C14E"/>
  <circle cx="14" cy="186" r="3" fill="#F2C14E"/>
  <circle cx="286" cy="186" r="3" fill="#F2C14E"/>
</svg>
